<svg id="그룹_2" data-name="그룹 2" xmlns="http://www.w3.org/2000/svg" width="1920" height="82" viewBox="0 0 1920 82">
  <path id="패스_1" data-name="패스 1" d="M0,395.729V338.971H1920v56.758c-4.346-.028-8.682-.009-13,0-198.365.422-395.642,24.148-594,23.215-155.936-.736-309.064-27.613-465-28.374-197.457-.959-322.541,24.4-520,24.075-35.807-.06-136.092-9.979-163-11.178h0C111.153,399.273,54.587,396.075,0,395.729Z" transform="translate(0 -336.971)" fill="#000551" opacity="0.85"/>
  <path id="패스_2" data-name="패스 2" d="M0,376.971H1920v33.984c-.335,0-.665,0-1,0-155.928.884-309.073,32.129-465,32.985-198.347,1.085-395.646-26.5-594-26.987-58.556-.142-119.87,3.731-178,9h0c-26.906,1.393-127.195,12.924-163,12.994-197.148.383-322.074-29.007-519-27.987Z" transform="translate(0 -376.971)" fill="#212c92"/>
</svg>
